:SAMPLES-PER-SECOND 30
:FULLY-SPECIFIED
:DEGREES
1222
root  32.6732 38.0866 20.9458 159.441 77.9096 163.976
RightUpLeg  4.07371 -7.0459 6.01461
RightLeg  8.3385 -48.7102 -13.3814
RightFoot  -11.1127 -2.71433 178.5
RightToes  -6.98493e-010 0 -3.6325e-017
Spine  12.4542 -1.65699 4.6748
Spine1  5.466 -0.538339 -3.92669
HEad  93.699 17.8911 174.471
LeftShoulder1  0.605675 1.83064 -30.0968
LeftArm  12.1205 -42.4748 -54.5807
LeftForeArm  5.18503 -19.1647 -5.87959
LeftHand  -0.180156 2.4667 6.80349
RightShoulder  0.245739 -2.51531 18.8959
RightArm  14.8117 34.4465 58.5304
RightForeArm  -3.05313 22.2215 4.98339
RightHand  -0.991603 7.89583 -8.98432
LeftUpLeg  -18.3642 -3.98515 -0.0295941
LeftLeg  41.2383 -1.24875 -0.753108
LeftFoot  -4.93124 0.171346 -2.54033
LeftToes  7.91257e-010 -1.64976e-010 -3.02228e-011
1223
root  33.6564 38.128 20.9184 156.771 78.4397 161.399
RightUpLeg  5.98421 -7.20016 5.9463
RightLeg  1.21051 2.61168 -4.65146
RightFoot  -13.3318 47.9008 177.142
RightToes  -6.98493e-010 0 -3.6325e-017
Spine  11.5564 -1.28558 4.22672
Spine1  5.71303 -0.126691 -4.56949
HEad  91.7121 17.5276 174.746
LeftShoulder1  0.697589 1.57087 -29.9848
LeftArm  11.7756 -45.935 -55.0564
LeftForeArm  5.44737 -18.2181 -6.33628
LeftHand  -0.191791 2.65994 7.76537
RightShoulder  0.332835 -2.10904 17.619
RightArm  15.8048 39.465 61.4446
RightForeArm  -3.34621 20.7756 4.96859
RightHand  -1.09529 8.24285 -9.66147
LeftUpLeg  -19.2924 -2.81893 -0.801987
LeftLeg  32.2924 -2.29863 -1.21601
LeftFoot  -5.03048 0.245355 -3.89022
LeftToes  7.91257e-010 -1.64976e-010 -3.02228e-011
1224
root  34.6656 38.1871 20.8582 156.581 79.1255 161.407
RightUpLeg  8.19593 -7.12256 5.70894
RightLeg  1.55684 -21.6644 -5.35511
RightFoot  -9.87102 23.5745 -173.026
RightToes  -6.98493e-010 0 -3.6325e-017
Spine  10.3406 -1.02956 4.52631
Spine1  6.37511 0.275623 -5.29987
HEad  77.5654 11.8644 178.517
LeftShoulder1  0.819627 1.18925 -29.3641
LeftArm  9.31287 -49.7609 -55.8255
LeftForeArm  6.96844 -14.9194 -7.73057
LeftHand  -0.183247 2.98048 8.29522
RightShoulder  0.445369 -1.56667 16.5096
RightArm  18.0588 45.4398 64.24
RightForeArm  -4.018 16.9162 5.56217
RightHand  -1.14474 8.30634 -10.0359
LeftUpLeg  -19.4607 -0.745412 -1.22697
LeftLeg  22.7845 -2.80484 -0.90428
LeftFoot  -4.52609 0.312241 -4.79562
LeftToes  7.91257e-010 -1.64976e-010 -3.02228e-011
1225
root  35.715 38.2178 20.7691 157.714 79.9253 163.332
RightUpLeg  11.4984 -6.99959 6.0441
RightLeg  -0.0782684 -15.3108 -3.78209
RightFoot  -7.71957 29.736 -165.618
RightToes  -6.98493e-010 0 -3.6325e-017
Spine  9.56765 -0.932003 5.83273
Spine1  7.07737 0.771275 -6.61051
HEad  32.5317 -9.73648 -165.439
LeftShoulder1  1.02216 0.510137 -28.0064
LeftArm  4.84206 -53.9288 -57.0932
LeftForeArm  9.19952 -9.33553 -8.93411
LeftHand  -0.111183 3.88243 7.39006
RightShoulder  0.552542 -1.00345 15.4828
RightArm  18.4982 51.7446 67.7829
RightForeArm  -1.52339 10.66 6.76332
RightHand  -1.03902 8.13902 -9.25371
LeftUpLeg  -18.6579 1.80898 -1.48222
LeftLeg  14.1552 -2.36575 -0.37055
LeftFoot  -3.68528 0.35796 -5.01286
LeftToes  7.91257e-010 -1.64976e-010 -3.02228e-011
1226
root  36.8434 38.1718 20.6726 159.212 80.0829 166.055
RightUpLeg  15.3289 -7.26903 6.43137
RightLeg  -1.44872 -14.9489 -3.23231
RightFoot  -5.80724 29.8171 -158.626
RightToes  -6.98493e-010 0 -3.6325e-017
Spine  9.24965 -0.874619 5.61352
Spine1  7.41731 0.659604 -5.95832
HEad  44.5009 -4.37676 -169.125
LeftShoulder1  1.17448 -0.00864656 -27.3184
LeftArm  4.22909 -58.0397 -58.9371
LeftForeArm  6.00394 -2.899 -8.83837
LeftHand  -0.0434291 4.95992 7.04939
RightShoulder  0.694344 -0.218983 14.3616
RightArm  20.2939 57.6351 72.0135
RightForeArm  -0.166914 3.31738 7.1616
RightHand  -0.919543 7.152 -8.83194
LeftUpLeg  -17.1348 2.7571 -1.54115
LeftLeg  7.80623 0.790053 -0.310634
LeftFoot  -2.05441 0.488343 -5.83691
LeftToes  7.91257e-010 -1.64976e-010 -3.02228e-011
1227
root  38.0923 37.9895 20.5331 160.936 79.8017 168.543
RightUpLeg  18.3094 -7.72368 6.65348
RightLeg  -1.62039 -18.6827 -3.28317
RightFoot  -5.54869 26.0796 -154.606
RightToes  -6.98493e-010 0 -3.6325e-017
Spine  7.52268 -0.646239 6.44026
Spine1  8.82534 1.11593 -6.5961
HEad  86.6192 17.8475 175.389
LeftShoulder1  1.41054 -0.811193 -26.5449
LeftArm  6.9 -61.5896 -62.8685
LeftForeArm  2.13459 2.2933 -8.2058
LeftHand  0.0674737 6.83121 7.7314
RightShoulder  0.785039 0.436713 13.003
RightArm  21.7459 62.0293 75.7866
RightForeArm  -1.36559 -3.48457 6.4487
RightHand  -0.822985 6.6722 -8.26871
LeftUpLeg  -16.2671 3.05528 -1.69946
LeftLeg  5.49317 4.778 -0.826938
LeftFoot  -0.830858 0.645886 -6.92166
LeftToes  7.91257e-010 -1.64976e-010 -3.02228e-011
